HIERARCHY
ROOT Hips
{
	OFFSET 0.000000 0.000000 0.000000
	CHANNELS 6 Xposition Yposition Zposition Zrotation Yrotation Xrotation 
	JOINT LHipJoint
	{
		OFFSET 0.000000 0.000000 0.000000
		CHANNELS 3 Zrotation Yrotation Xrotation
		JOINT LeftUpLeg
		{
			OFFSET 1.363060 -1.794630 0.839290
			CHANNELS 3 Zrotation Yrotation Xrotation
			JOINT LeftLeg
			{
				OFFSET 2.448110 -6.726130 0.000000
				CHANNELS 3 Zrotation Yrotation Xrotation
				JOINT LeftFoot
				{
					OFFSET 2.562200 -7.039590 0.000000
					CHANNELS 3 Zrotation Yrotation Xrotation
					JOINT LeftToeBase
					{
						OFFSET 0.157640 -0.433110 2.322550
						CHANNELS 3 Zrotation Yrotation Xrotation
						End Site
						{
							OFFSET 0.000000 0.000000 0.000000
						}
					}
				}
			}
		}
	}
	JOINT RHipJoint
	{
		OFFSET 0.000000 0.000000 0.000000
		CHANNELS 3 Zrotation Yrotation Xrotation
		JOINT RightUpLeg
		{
			OFFSET -1.305520 -1.794630 0.839290
			CHANNELS 3 Zrotation Yrotation Xrotation
			JOINT RightLeg
			{
				OFFSET -2.542530 -6.985550 0.000000
				CHANNELS 3 Zrotation Yrotation Xrotation
				JOINT RightFoot
				{
					OFFSET -2.568260 -7.056230 0.000000
					CHANNELS 3 Zrotation Yrotation Xrotation
					JOINT RightToeBase
					{
						OFFSET -0.164730 -0.452590 2.363150
						CHANNELS 3 Zrotation Yrotation Xrotation
						End Site
						{
							OFFSET 0.000000 0.000000 0.000000
						}
					}
				}
			}
		}
	}
	JOINT LowerBack
	{
		OFFSET 0.000000 0.000000 0.000000
		CHANNELS 3 Zrotation Yrotation Xrotation
		JOINT Spine
		{
			OFFSET 0.028270 2.035590 -0.193380
			CHANNELS 3 Zrotation Yrotation Xrotation
			JOINT Spine1
			{
				OFFSET 0.056720 2.048850 -0.042750
				CHANNELS 3 Zrotation Yrotation Xrotation
				JOINT Neck
				{
					OFFSET 0.000000 0.000000 0.000000
					CHANNELS 3 Zrotation Yrotation Xrotation
					JOINT Neck1
					{
						OFFSET -0.054170 1.746240 0.172020
						CHANNELS 3 Zrotation Yrotation Xrotation
						JOINT Head
						{
							OFFSET 0.104070 1.761360 -0.123970
							CHANNELS 3 Zrotation Yrotation Xrotation
							End Site
							{
								OFFSET 0.000000 0.000000 0.000000
							}
						}
					}
				}
				JOINT LeftShoulder
				{
					OFFSET 0.000000 0.000000 0.000000
					CHANNELS 3 Zrotation Yrotation Xrotation
					JOINT LeftArm
					{
						OFFSET 3.362410 1.200890 -0.311210
						CHANNELS 3 Zrotation Yrotation Xrotation
						JOINT LeftForeArm
						{
							OFFSET 4.983000 -0.000000 -0.000000
							CHANNELS 3 Zrotation Yrotation Xrotation
							JOINT LeftHand
							{
								OFFSET 3.483560 -0.000000 -0.000000
								CHANNELS 3 Zrotation Yrotation Xrotation
								JOINT LeftFingerBase
								{
									OFFSET 0.000000 0.000000 0.000000
									CHANNELS 3 Zrotation Yrotation Xrotation
									JOINT LeftHandIndex1
									{
										OFFSET 0.715260 -0.000000 -0.000000
										CHANNELS 3 Zrotation Yrotation Xrotation
										End Site
										{
											OFFSET 0.000000 0.000000 0.000000
										}
									}
								}
								JOINT LThumb
								{
									OFFSET 0.000000 0.000000 0.000000
									CHANNELS 3 Zrotation Yrotation Xrotation
									End Site
									{
										OFFSET 0.000000 0.000000 0.000000
									}
								}
							}
						}
					}
				}
				JOINT RightShoulder
				{
					OFFSET 0.000000 0.000000 0.000000
					CHANNELS 3 Zrotation Yrotation Xrotation
					JOINT RightArm
					{
						OFFSET -3.136600 1.374050 -0.404650
						CHANNELS 3 Zrotation Yrotation Xrotation
						JOINT RightForeArm
						{
							OFFSET -5.241900 -0.000000 -0.000000
							CHANNELS 3 Zrotation Yrotation Xrotation
							JOINT RightHand
							{
								OFFSET -3.444170 -0.000000 -0.000000
								CHANNELS 3 Zrotation Yrotation Xrotation
								JOINT RightFingerBase
								{
									OFFSET 0.000000 0.000000 0.000000
									CHANNELS 3 Zrotation Yrotation Xrotation
									JOINT RightHandIndex1
									{
										OFFSET -0.622530 -0.000000 -0.000000
										CHANNELS 3 Zrotation Yrotation Xrotation
										End Site
										{
											OFFSET 0.000000 0.000000 0.000000
										}
									}
								}
								JOINT RThumb
								{
									OFFSET 0.000000 0.000000 0.000000
									CHANNELS 3 Zrotation Yrotation Xrotation
									End Site
									{
										OFFSET 0.000000 0.000000 0.000000
									}
								}
							}
						}
					}
				}
			}
		}
	}
}
MOTION
Frames: 11
Frame Time: 0.008333
0.393871 17.889264 -5.418595 -3.572684 -4.219867 10.578996 -2.783908 0.069193 0.847851 -9.651725 -3.802672 -15.818592 0.611886 8.999737 26.259948 -0.693974 5.756339 -9.045594 0.561000 -4.797600 -13.332100 4.647920 1.251386 0.313260 12.998392 5.251983 -16.269010 -2.035346 -9.876888 27.443449 0.126340 -3.330741 -9.413201 -0.068500 1.688900 -4.646800 -3.089951 0.217114 -8.245511 3.413339 0.825908 -3.618287 4.913619 0.407051 2.247428 0.884475 -1.257782 -17.193950 0.148758 -1.472641 21.426044 -1.992100 -0.452700 12.098100 0.632405 4.856108 -0.944695 -91.550206 0.595894 33.085730 12.593062 -22.132751 -1.688343 0.949539 0.999709 -3.371971 9.444494 39.222997 5.257800 -7.125000 0.000000 0.000000 -34.312800 65.557100 -17.974200 0.147408 -4.222393 -1.137221 86.842892 -1.655704 25.654171 -13.611464 23.843988 -2.478655 0.069500 0.268368 -7.021069 -20.688730 12.385785 -4.551100 7.125000 0.000000 0.000000 4.465900 -17.087500 2.965600 
0.396370 17.891064 -5.416895 -3.467950 -4.342546 10.553402 -2.794950 0.076357 0.858920 -9.800845 -3.756760 -15.739469 0.592435 8.966253 26.165649 -0.691798 5.741910 -9.019452 0.551900 -4.758900 -13.222200 4.657599 1.239678 0.304275 12.841349 5.688528 -16.031410 -2.022257 -9.862570 27.385137 0.201928 -3.763109 -9.379079 -0.094500 1.982500 -5.457300 -3.233550 0.186552 -8.228549 3.466496 0.801363 -3.628390 5.010354 0.395580 2.237388 0.862437 -1.189950 -17.137747 0.050063 -1.357911 21.414687 -2.006200 -0.418800 12.087500 0.632242 4.849155 -0.937213 -91.624704 0.750782 32.994881 12.494996 -21.991402 -1.683905 0.963884 0.956798 -2.769809 9.650079 38.119977 5.259100 -7.125000 0.000000 0.000000 -32.678500 64.745400 -16.427100 0.142163 -4.228163 -1.142423 86.725553 -1.709012 25.876705 -13.624543 23.862529 -2.483549 0.069882 0.267865 -7.007064 -20.690576 12.401865 -4.557700 7.125000 0.000000 0.000000 4.464900 -17.069700 2.966700 
0.397070 17.893664 -5.414896 -3.444821 -4.387066 10.545938 -2.804338 0.084310 0.870305 -9.831638 -3.744931 -15.691655 0.577803 8.941192 26.090072 -0.697449 5.763433 -8.999810 0.560800 -4.796500 -13.329000 4.670782 1.223367 0.296520 12.778872 6.251028 -15.737567 -2.002053 -9.831461 27.283500 0.262838 -4.142234 -9.499872 -0.069300 1.698600 -4.673300 -3.251693 0.195126 -8.258467 3.453029 0.811629 -3.592973 5.020575 0.401866 2.264457 0.894074 -1.172198 -17.159355 0.021419 -1.339452 21.405491 -2.019000 -0.412000 12.088800 0.636306 4.847813 -0.934677 -91.612787 0.772273 32.996420 12.339391 -21.755376 -1.656305 0.979273 0.913675 -2.109193 9.912087 37.053624 5.290200 -7.125000 0.000000 0.000000 -31.130100 63.959300 -15.009900 0.142733 -4.229534 -1.144665 86.754458 -1.715740 25.804854 -13.647654 23.898346 -2.492179 0.069827 0.267333 -6.879794 -20.734768 12.356762 -4.551500 7.125000 0.000000 0.000000 4.433200 -17.113400 2.941300 
0.396770 17.898863 -5.414696 -3.428216 -4.423809 10.565221 -2.814449 0.094081 0.881263 -9.838561 -3.761033 -15.694633 0.566929 8.928165 26.040285 -0.702765 5.786762 -8.991940 0.569400 -4.832800 -13.432400 4.697424 1.193665 0.273384 12.716619 7.393072 -15.246806 -1.983048 -9.801292 27.199303 0.404518 -5.030219 -9.868094 -0.041400 1.314000 -3.613200 -3.275994 0.200643 -8.297632 3.454125 0.821075 -3.573859 5.035690 0.408447 2.295804 0.875697 -1.177513 -17.184060 0.032735 -1.341856 21.413054 -2.012300 -0.413300 12.096700 0.640854 4.853004 -0.931130 -91.635269 0.758523 32.898765 12.120900 -21.416593 -1.608989 0.999191 0.858427 -1.198858 10.306042 35.833243 5.369700 -7.125000 0.000000 0.000000 -29.371600 63.065100 -13.474300 0.141085 -4.226278 -1.145396 86.770938 -1.689144 25.749701 -13.639639 23.886740 -2.488497 0.069424 0.268174 -6.756713 -20.792616 12.333885 -4.556100 7.125000 0.000000 0.000000 4.392800 -17.133700 2.912300 
0.395670 17.899763 -5.416295 -3.465297 -4.416274 10.570598 -2.812680 0.098582 0.881682 -9.779571 -3.807073 -15.690534 0.564604 8.925449 26.025481 -0.699418 5.765499 -8.967003 0.562500 -4.803900 -13.350200 4.701166 1.196828 0.273296 12.776725 7.396577 -15.214775 -1.971502 -9.779702 27.133069 0.423374 -5.139877 -9.885627 -0.051500 1.464400 -4.027700 -3.253820 0.185901 -8.287488 3.484384 0.806205 -3.576853 5.031588 0.394702 2.286013 0.647688 -1.260636 -17.490897 0.365492 -1.392484 21.887345 -1.864300 -0.399100 12.331500 0.645462 4.898460 -0.930369 -91.658642 0.761677 32.759500 11.855331 -20.992998 -1.542132 1.018190 0.802562 -0.091880 10.630546 34.722736 5.410300 -7.125000 0.000000 0.000000 -27.896500 62.222600 -12.187700 0.135065 -4.186905 -1.134521 86.767338 -1.660064 25.767072 -13.608495 23.842072 -2.476190 0.069670 0.270427 -6.751409 -20.819720 12.382395 -4.579800 7.125000 0.000000 0.000000 4.375000 -17.082500 2.905400 
0.395470 17.899263 -5.416295 -3.551947 -4.404068 10.557178 -2.808577 0.112136 0.889039 -9.681462 -3.801274 -15.681564 0.565661 8.927937 26.022297 -0.693115 5.731589 -8.941259 0.557100 -4.781000 -13.284900 4.701604 1.205394 0.272222 12.895761 7.352608 -15.177033 -1.966324 -9.765442 27.094689 0.444289 -5.241564 -9.819805 -0.071100 1.719900 -4.732200 -3.147668 0.157166 -8.262555 3.516294 0.771204 -3.563684 4.981372 0.359555 2.261857 0.030953 -1.479986 -18.379412 1.360158 -1.539177 23.186375 -1.418100 -0.349800 12.995900 0.652104 5.022350 -0.935898 -91.648264 0.760419 32.732171 11.454093 -20.343713 -1.441748 1.040749 0.720240 1.381728 11.221700 33.105864 5.514200 -7.125000 0.000000 0.000000 -25.773400 60.997300 -10.439500 0.125450 -4.072430 -1.101748 86.780474 -1.665054 25.778245 -13.602112 23.837948 -2.473727 0.070929 0.272695 -6.778351 -20.833667 12.435703 -4.602500 7.125000 0.000000 0.000000 4.365700 -17.027000 2.904500 
0.396470 17.898663 -5.415396 -3.543563 -4.423293 10.571636 -2.809655 0.109183 0.886887 -9.703123 -3.769370 -15.700765 0.567580 8.931765 26.033646 -0.692955 5.733133 -8.949403 0.548300 -4.743600 -13.178700 4.697514 1.206357 0.271012 12.874035 7.307592 -15.212592 -1.966913 -9.763928 27.090755 0.442440 -5.201807 -9.692977 -0.074900 1.765900 -4.859200 -3.125121 0.178457 -8.258731 3.479542 0.795206 -3.587274 4.959846 0.372683 2.251338 0.084015 -1.487340 -18.352805 1.298123 -1.559294 23.182795 -1.453300 -0.361200 12.989100 0.653612 5.016824 -0.937838 -91.615276 0.739035 32.824520 11.469655 -20.353972 -1.426959 1.034821 0.755534 1.449497 10.553376 33.937851 5.262300 -7.125000 0.000000 0.000000 -27.205900 61.533600 -11.416700 0.128164 -4.075187 -1.100131 86.817883 -1.709832 25.714989 -13.603286 23.838785 -2.474674 0.070926 0.271867 -6.731296 -20.814988 12.393113 -4.582400 7.125000 0.000000 0.000000 4.377600 -17.072900 2.908000 
0.396570 17.899363 -5.415196 -3.460050 -4.451409 10.600043 -2.816360 0.102918 0.881417 -9.792356 -3.783389 -15.724530 0.565458 8.933040 26.035237 -0.698879 5.759319 -8.938847 0.545100 -4.730000 -13.140000 4.692553 1.208281 0.269183 12.784307 7.268497 -15.263083 -1.965915 -9.761575 27.084097 0.453825 -5.248859 -9.623578 -0.084900 1.879800 -5.173600 -3.195186 0.185175 -8.273801 3.423266 0.807012 -3.613656 4.985930 0.379116 2.250360 0.090183 -1.496759 -18.346201 1.291865 -1.573917 23.181097 -1.458400 -0.368100 12.986600 0.655521 5.015256 -0.938538 -91.602615 0.751239 32.785457 11.503343 -20.398127 -1.424814 1.027649 0.780209 1.738625 9.829632 34.551088 4.938500 -7.125000 0.000000 0.000000 -28.515700 61.858900 -12.236700 0.131954 -4.075158 -1.098173 86.844608 -1.714865 25.662309 -13.589173 23.818328 -2.470884 0.070351 0.270687 -6.689702 -20.773895 12.305577 -4.540400 7.125000 0.000000 0.000000 4.404200 -17.168100 2.916600 
0.395270 17.901563 -5.415096 -3.403810 -4.434315 10.602896 -2.819617 0.100456 0.880782 -9.851641 -3.754970 -15.748839 0.564748 8.933244 26.035377 -0.692280 5.727657 -8.927240 0.554700 -4.771000 -13.256600 4.693381 1.207340 0.268934 12.722107 7.333641 -15.238349 -1.963366 -9.757382 27.072270 0.444786 -5.208702 -9.674125 -0.055100 1.514300 -4.165100 -3.265480 0.166592 -8.285143 3.414789 0.787183 -3.603394 5.023933 0.369469 2.259628 0.088262 -1.479021 -18.375173 1.282990 -1.545187 23.191199 -1.456300 -0.357500 12.996900 0.654402 5.014164 -0.939621 -91.628705 0.742030 32.710734 11.523365 -20.422231 -1.420197 1.026070 0.794232 1.952935 9.474634 34.997929 4.792700 -7.125000 0.000000 0.000000 -29.315100 62.137800 -12.806200 0.133120 -4.074266 -1.098852 86.815134 -1.736270 25.764030 -13.609860 23.848344 -2.479318 0.068561 0.269633 -6.786230 -20.792966 12.255085 -4.526300 7.125000 0.000000 0.000000 4.390300 -17.218800 2.902500 
0.394371 17.902563 -5.415196 -3.395618 -4.399442 10.590737 -2.819030 0.100887 0.882635 -9.864250 -3.704186 -15.766243 0.566918 8.936015 26.044212 -0.677615 5.665446 -8.944482 0.550100 -4.751400 -13.200800 4.696828 1.205299 0.268853 12.696345 7.434899 -15.179876 -1.959534 -9.750829 27.052992 0.420313 -5.092710 -9.772824 -0.023900 0.998500 -2.744700 -3.286692 0.151767 -8.269102 3.431833 0.769723 -3.593377 5.039354 0.361230 2.253970 0.079084 -1.467740 -18.393386 1.268876 -1.522452 23.201223 -1.456500 -0.350500 13.004700 0.653133 5.013643 -0.939639 -91.641325 0.749281 32.790202 11.534025 -20.441228 -1.424021 1.028611 0.792018 1.754415 9.736770 34.958435 4.935600 -7.125000 0.000000 0.000000 -29.018000 62.176300 -12.690600 0.132399 -4.073476 -1.099704 86.782013 -1.784446 25.913287 -13.639383 23.888303 -2.488793 0.065249 0.270655 -7.010001 -20.917911 12.291917 -4.568600 7.125000 0.000000 0.000000 4.305800 -17.170000 2.850900 
0.394771 17.902463 -5.416195 -3.485109 -4.381008 10.594791 -2.812161 0.103020 0.882843 -9.773025 -3.694033 -15.781775 0.571058 8.940573 26.055567 -0.678578 5.666116 -8.934048 0.542500 -4.719100 -13.109100 4.701734 1.204105 0.269017 12.783982 7.473236 -15.155405 -1.955465 -9.742274 27.029208 0.418613 -5.098987 -9.837823 -0.023800 0.996000 -2.737900 -3.192515 0.165139 -8.246294 3.471247 0.781835 -3.590595 4.994588 0.367948 2.243468 0.082802 -1.461229 -18.382893 1.241032 -1.512431 23.156541 -1.467500 -0.350700 12.984900 0.652605 5.011483 -0.937771 -91.633776 0.780556 32.990048 11.518827 -20.430326 -1.434035 1.035667 0.768867 1.081722 10.717888 34.277490 5.398600 -7.125000 0.000000 0.000000 -27.371000 61.867100 -11.708700 0.129856 -4.076262 -1.100301 86.795658 -1.807210 25.903281 -13.639687 23.885807 -2.486524 0.064754 0.272813 -7.112836 -20.993054 12.405462 -4.628100 7.125000 0.000000 0.000000 4.256900 -17.045300 2.830000 
